<?xml version="1.0" encoding="utf-8"?>
<svg width="24px" height="24px" viewBox="0 0 24 24" version="1.1" xmlns:xlink="http://www.w3.org/1999/xlink" xmlns="http://www.w3.org/2000/svg">
  <g id="luna_cancel" fill-opacity="1">
    <path d="M0 0L24 0L24 24L0 24L0 0Z" id="luna_cancel" fill="none" fill-rule="evenodd" stroke="none" />
    <g id="vuesaxbrokenclose-circle" fill-opacity="1">
      <path d="M0 0L24 0L24 24L0 24L0 0Z" id="vuesaxbrokenclose-circle" fill="none" fill-rule="evenodd" stroke="none" />
      <g id="vuesaxbrokenclose-circle">
        <g id="close-circle">
          <path d="M13.9902 10.0099L14.8302 9.16992" id="Vector" fill="none" fill-rule="evenodd" stroke="#292D32" stroke-width="1.5" stroke-linecap="round" stroke-linejoin="round" />
          <path d="M9.16992 14.8301L11.9199 12.0801" id="Vector" fill="none" fill-rule="evenodd" stroke="#292D32" stroke-width="1.5" stroke-linecap="round" stroke-linejoin="round" />
          <path d="M14.8299 14.8299L9.16992 9.16992" id="Vector" fill="none" fill-rule="evenodd" stroke="#292D32" stroke-width="1.5" stroke-linecap="round" stroke-linejoin="round" />
          <path d="M4 6C2.75 7.67 2 9.75 2 12C2 17.52 6.48 22 12 22C17.52 22 22 17.52 22 12C22 6.48 17.52 2 12 2C10.57 2 9.2 2.3 7.97 2.85" id="Vector" fill="none" stroke="#292D32" stroke-width="1.5" stroke-linecap="round" stroke-linejoin="round" />
          <path d="M24 0L24 24L0 24L0 0L24 0Z" id="Vector" fill="none" fill-rule="evenodd" stroke="none" />
        </g>
      </g>
    </g>
  </g>
</svg>