<?xml version="1.0" encoding="utf-8"?>
<svg width="24px" height="24px" viewBox="0 0 24 24" version="1.1" xmlns:xlink="http://www.w3.org/1999/xlink" xmlns="http://www.w3.org/2000/svg">
  <g id="luna_copy" fill-opacity="1">
    <path d="M0 0L24 0L24 24L0 24L0 0Z" id="luna_copy" fill="none" fill-rule="evenodd" stroke="none" />
    <g id="vuesaxbrokendocument-copy" fill-opacity="1">
      <path d="M0 0L24 0L24 24L0 24L0 0Z" id="vuesaxbrokendocument-copy" fill="none" fill-rule="evenodd" stroke="none" />
      <g id="vuesaxbrokendocument-copy">
        <g id="document-copy">
          <path d="M2 12.6C2 8.6 3.6 7 7.6 7L10.6 7" id="Vector" fill="none" stroke="#292D32" stroke-width="1.5" stroke-linecap="round" stroke-linejoin="round" />
          <path d="M17 13.3999L17 16.3999C17 20.3999 15.4 21.9999 11.4 21.9999L7.6 21.9999C3.6 21.9999 2 20.3999 2 16.3999" id="Vector" fill="none" stroke="#292D32" stroke-width="1.5" stroke-linecap="round" stroke-linejoin="round" />
          <path d="M13.7996 13.4C11.3996 13.4 10.5996 12.6 10.5996 10.2L10.5996 7L16.9996 13.4" id="Vector" fill="none" stroke="#292D32" stroke-width="1.5" stroke-linecap="round" stroke-linejoin="round" />
          <path d="M11.5996 2L15.5996 2" id="Vector" fill="none" fill-rule="evenodd" stroke="#292D32" stroke-width="1.5" stroke-linecap="round" stroke-linejoin="round" />
          <path d="M7 5C7 3.34 8.34 2 10 2L12.62 2" id="Vector" fill="none" stroke="#292D32" stroke-width="1.5" stroke-linecap="round" stroke-linejoin="round" />
          <path d="M21.9995 8L21.9995 14.19C21.9995 15.74 20.7395 17 19.1895 17" id="Vector" fill="none" stroke="#292D32" stroke-width="1.5" stroke-linecap="round" stroke-linejoin="round" />
          <path d="M19 8C16.75 8 16 7.25 16 5L16 2L22 8L19 8Z" id="Vector" fill="none" stroke="#292D32" stroke-width="1.5" stroke-linecap="round" stroke-linejoin="round" />
          <path d="M24 0L24 24L0 24L0 0L24 0Z" id="Vector" fill="none" fill-rule="evenodd" stroke="none" />
        </g>
      </g>
    </g>
  </g>
</svg>