<?xml version="1.0" encoding="utf-8"?>
<svg width="24px" height="24px" viewBox="0 0 24 24" version="1.1" xmlns:xlink="http://www.w3.org/1999/xlink" xmlns="http://www.w3.org/2000/svg">
  <g id="luna_bin" fill-opacity="1">
    <path d="M0 0L24 0L24 24L0 24L0 0Z" id="luna_bin" fill="none" fill-rule="evenodd" stroke="none" />
    <g id="vuesaxbrokenarchive" fill-opacity="1">
      <path d="M0 0L24 0L24 24L0 24L0 0Z" id="vuesaxbrokenarchive" fill="none" fill-rule="evenodd" stroke="none" />
      <g id="vuesaxbrokenarchive">
        <g id="archive">
          <path d="M4.5 13.01L4.5 10.22" id="Vector" fill="none" fill-rule="evenodd" stroke="#292D32" stroke-width="1.5" stroke-linecap="round" stroke-linejoin="round" />
          <path d="M19.5 10.22L19.5 19C19.5 21 19 22 16.5 22L7.5 22C5 22 4.5 21 4.5 19L4.5 16.97" id="Vector" fill="none" stroke="#292D32" stroke-width="1.5" stroke-linecap="round" stroke-linejoin="round" />
          <path d="M19 2C21 2 22 3 22 5L22 7C22 9 21 10 19 10L5 10C3 10 2 9 2 7L2 5C2 3 3 2 5 2L19 2Z" id="Vector" fill="none" stroke="#292D32" stroke-width="1.5" stroke-linecap="round" stroke-linejoin="round" />
          <path d="M10.1797 14L13.8197 14" id="Vector" fill="none" fill-rule="evenodd" stroke="#292D32" stroke-width="1.5" stroke-linecap="round" stroke-linejoin="round" />
          <path d="M24 0L24 24L0 24L0 0L24 0Z" id="Vector" fill="none" fill-rule="evenodd" stroke="none" />
        </g>
      </g>
    </g>
  </g>
</svg>