<?xml version="1.0" encoding="utf-8"?>
<svg width="24px" height="24px" viewBox="0 0 24 24" version="1.1" xmlns:xlink="http://www.w3.org/1999/xlink" xmlns="http://www.w3.org/2000/svg">
  <g id="luna_share" fill-opacity="1">
    <path d="M0 0L24 0L24 24L0 24L0 0Z" id="luna_share" fill="none" fill-rule="evenodd" stroke="none" />
    <g id="vuesaxbrokensend-2" fill-opacity="1">
      <path d="M0 0L24 0L24 24L0 24L0 0Z" id="vuesaxbrokensend-2" fill="none" fill-rule="evenodd" stroke="none" />
      <g id="vuesaxbrokensend-2">
        <g id="send-2">
          <path d="M15.8897 3.48991C19.6997 2.21991 21.7697 4.29991 20.5097 8.10991L17.6797 16.5999C15.7797 22.3099 12.6597 22.3099 10.7597 16.5999L9.91969 14.0799L7.39969 13.2399C1.68969 11.3399 1.68969 8.22991 7.39969 6.31991L11.9997 4.78991" id="Vector" fill="none" stroke="#292D32" stroke-width="1.5" stroke-linecap="round" stroke-linejoin="round" />
          <path d="M10.1094 13.6501L13.6894 10.0601" id="Vector" fill="none" stroke="#292D32" stroke-width="1.5" stroke-linecap="round" stroke-linejoin="round" />
          <path d="M24 0L24 24L0 24L0 0L24 0Z" id="Vector" fill="none" fill-rule="evenodd" stroke="none" />
        </g>
      </g>
    </g>
  </g>
</svg>