<?xml version="1.0" encoding="utf-8"?>
<svg width="15px" height="15px" viewBox="0 0 15 15" version="1.1" xmlns:xlink="http://www.w3.org/1999/xlink" xmlns="http://www.w3.org/2000/svg">
  <g id="vuesaxbrokensearch-normal" fill-opacity="1">
    <path d="M0 0L15 0L15 15L0 15L0 0Z" id="vuesaxbrokensearch-normal" fill="none" fill-rule="evenodd" stroke="none" />
    <g id="vuesaxbrokensearch-normal">
      <g id="search-normal">
        <path d="M6.875 1.25C9.98125 1.25 12.5 3.76875 12.5 6.875C12.5 9.98125 9.98125 12.5 6.875 12.5C3.76875 12.5 1.25 9.98125 1.25 6.875C1.25 4.6875 2.5 2.7875 4.33125 1.85625" id="Vector" fill="none" stroke="#292D32" stroke-width="1.5" stroke-linecap="round" stroke-linejoin="round" />
        <path d="M13.5881 13.3313C14.1256 12.5312 13.7756 11.875 12.8131 11.875C12.0944 11.875 11.6944 12.4312 11.9194 13.1062C12.2506 14.1062 13.0069 14.2062 13.5881 13.3313Z" id="Vector" fill="none" stroke="#292D32" stroke-width="1.5" stroke-linecap="round" stroke-linejoin="round" />
        <path d="M15 0L15 15L0 15L0 0L15 0Z" id="Vector" fill="none" fill-rule="evenodd" stroke="none" />
      </g>
    </g>
  </g>
</svg>