<?xml version="1.0" encoding="utf-8"?>
<svg width="24px" height="24px" viewBox="0 0 24 24" version="1.1" xmlns:xlink="http://www.w3.org/1999/xlink" xmlns="http://www.w3.org/2000/svg">
  <g id="vuesaxbrokenbook" fill-opacity="1">
    <path d="M0 0L24 0L24 24L0 24L0 0Z" id="vuesaxbrokenbook" fill="none" fill-rule="evenodd" stroke="none" />
    <g id="vuesaxbrokenbook">
      <g id="book">
        <path d="M20.5902 11L20.5902 17C20.5902 17.14 20.5902 17.28 20.4902 17.42" id="Vector" fill="none" stroke="#000000" stroke-width="1.5" stroke-linecap="round" stroke-linejoin="round" />
        <path d="M3.5 18L3.5 7C3.5 3 4.5 2 8.5 2L15.5 2C19.5 2 20.5 3 20.5 7" id="Vector" fill="none" stroke="#000000" stroke-width="1.5" stroke-linecap="round" stroke-linejoin="round" />
        <path d="M20.5 15L20.5 18.5C20.5 20.43 18.93 22 17 22L7 22C5.07 22 3.5 20.43 3.5 18.5L3.5 17.85C3.5 16.28 4.78 15 6.35 15L20.5 15Z" id="Vector" fill="none" stroke="#000000" stroke-width="1.5" stroke-linecap="round" stroke-linejoin="round" />
        <path d="M8 7L16 7" id="Vector" fill="none" fill-rule="evenodd" stroke="#000000" stroke-width="1.5" stroke-linecap="round" stroke-linejoin="round" />
        <path d="M8 10.5L13 10.5" id="Vector" fill="none" fill-rule="evenodd" stroke="#000000" stroke-width="1.5" stroke-linecap="round" stroke-linejoin="round" />
        <path d="M24 0L24 24L0 24L0 0L24 0Z" id="Vector" fill="none" fill-rule="evenodd" stroke="none" />
      </g>
    </g>
  </g>
</svg>