<?xml version="1.0" encoding="utf-8"?>
<svg width="15px" height="15px" viewBox="0 0 15 15" version="1.1" xmlns:xlink="http://www.w3.org/1999/xlink" xmlns="http://www.w3.org/2000/svg">
  <g id="vuesaxbrokencategory" fill-opacity="1">
    <path d="M0 0L15 0L15 15L0 15L0 0Z" id="vuesaxbrokencategory" fill="none" fill-rule="evenodd" stroke="none" />
    <g id="vuesaxbrokencategory">
      <g id="category">
        <path d="M4.375 6.25C5.625 6.25 6.25 5.625 6.25 4.375L6.25 3.125C6.25 1.875 5.625 1.25 4.375 1.25L3.125 1.25C1.875 1.25 1.25 1.875 1.25 3.125L1.25 4.375C1.25 5.625 1.875 6.25 3.125 6.25L4.375 6.25Z" id="Vector" fill="none" stroke="#292D32" stroke-width="1.5" stroke-linecap="round" stroke-linejoin="round" />
        <path d="M11.875 1.25L10.625 1.25C9.375 1.25 8.75 1.875 8.75 3.125L8.75 4.375C8.75 5.625 9.375 6.25 10.625 6.25L11.875 6.25C13.125 6.25 13.75 5.625 13.75 4.375L13.75 3.125" id="Vector" fill="none" stroke="#292D32" stroke-width="1.5" stroke-linecap="round" stroke-linejoin="round" />
        <path d="M11.875 13.75C13.125 13.75 13.75 13.125 13.75 11.875L13.75 10.625C13.75 9.375 13.125 8.75 11.875 8.75L10.625 8.75C9.375 8.75 8.75 9.375 8.75 10.625L8.75 11.875C8.75 13.125 9.375 13.75 10.625 13.75L11.875 13.75Z" id="Vector" fill="none" stroke="#292D32" stroke-width="1.5" stroke-linecap="round" stroke-linejoin="round" />
        <path d="M3.125 13.75L4.375 13.75C5.625 13.75 6.25 13.125 6.25 11.875L6.25 10.625C6.25 9.375 5.625 8.75 4.375 8.75L3.125 8.75C1.875 8.75 1.25 9.375 1.25 10.625L1.25 11.875" id="Vector" fill="none" stroke="#292D32" stroke-width="1.5" stroke-linecap="round" stroke-linejoin="round" />
        <path d="M15 0L15 15L0 15L0 0L15 0Z" id="Vector" fill="none" fill-rule="evenodd" stroke="none" />
      </g>
    </g>
  </g>
</svg>