<?xml version="1.0" encoding="utf-8"?>
<svg width="24px" height="24px" viewBox="0 0 24 24" version="1.1" xmlns:xlink="http://www.w3.org/1999/xlink" xmlns="http://www.w3.org/2000/svg">
  <g id="vuesaxbrokenfolder-favorite" fill-opacity="1">
    <path d="M0 0L24 0L24 24L0 24L0 0Z" id="vuesaxbrokenfolder-favorite" fill="none" fill-rule="evenodd" stroke="none" />
    <g id="vuesaxbrokenfolder-favorite">
      <g id="folder-favorite">
        <path d="M11.7805 17.04C11.9005 17.15 12.0905 17.15 12.2105 17.04L14.7905 14.78C15.4605 14.19 15.5505 13.19 14.9905 12.49C14.4305 11.79 13.4105 11.66 12.7005 12.2L12.0005 12.74L11.2905 12.21C10.5705 11.67 9.56046 11.8 9.00046 12.5C8.44046 13.19 8.53046 14.2 9.20046 14.78L11.7805 17.04Z" id="Vector" fill="none" stroke="#292D32" stroke-width="1.5" stroke-linecap="round" stroke-linejoin="round" />
        <path d="M2 13.02L2 7C2 3 3 2 7 2L8.5 2C10 2 10.33 2.44 10.9 3.2L12.4 5.2C12.78 5.7 13 6 14 6L17 6C21 6 22 7 22 11" id="Vector" fill="none" stroke="#292D32" stroke-width="1.5" stroke-linecap="round" stroke-linejoin="round" />
        <path d="M22 14.99L22 17C22 21 21 22 17 22L7 22C3 22 2 21 2 17" id="Vector" fill="none" stroke="#292D32" stroke-width="1.5" stroke-linecap="round" stroke-linejoin="round" />
        <path d="M24 0L24 24L0 24L0 0L24 0Z" id="Vector" fill="none" fill-rule="evenodd" stroke="none" />
      </g>
    </g>
  </g>
</svg>