<?xml version="1.0" encoding="utf-8"?>
<svg width="20px" height="20px" viewBox="0 0 20 20" version="1.1" xmlns:xlink="http://www.w3.org/1999/xlink" xmlns="http://www.w3.org/2000/svg">
  <g id="vuesaxbrokenarchive-book" fill-opacity="1">
    <path d="M1115 96L1115 96L1115 116L1095 116L1095 96L1115 96Z" id="vuesaxbrokenarchive-book" fill="none" stroke="none" />
    <g id="vuesaxbrokenarchive-book">
      <g id="archive-book">
        <path d="M2.5 5.83333C2.5 3.33333 3.75 1.66667 6.66667 1.66667L13.3333 1.66667C16.25 1.66667 17.5 3.33333 17.5 5.83333L17.5 14.1667C17.5 16.6667 16.25 18.3333 13.3333 18.3333L6.66667 18.3333C3.75 18.3333 2.5 16.6667 2.5 14.1667L2.5 9.12501" id="Vector" fill="none" stroke="#292D32" stroke-width="1.5" stroke-linecap="round" stroke-linejoin="round" />
        <path d="M12.9167 4.99166L12.9167 8.21665C12.9167 8.58332 12.4833 8.76665 12.2166 8.52498L10.2834 6.74169C10.125 6.59169 9.87498 6.59169 9.71664 6.74169L7.78336 8.52498C7.51669 8.76665 7.08333 8.58332 7.08333 8.21665L7.08333 1.66667L12.9167 1.66667" id="Vector" fill="none" stroke="#292D32" stroke-width="1.5" stroke-linecap="round" stroke-linejoin="round" />
        <path d="M11.0417 11.6667L14.5833 11.6667" id="Vector" fill="none" fill-rule="evenodd" stroke="#292D32" stroke-width="1.5" stroke-linecap="round" stroke-linejoin="round" />
        <path d="M7.5 15L14.5833 15" id="Vector" fill="none" fill-rule="evenodd" stroke="#292D32" stroke-width="1.5" stroke-linecap="round" stroke-linejoin="round" />
        <path d="M3.8147e-06 19.9992L3.8147e-06 0L19.9992 0L19.9992 19.9992L3.8147e-06 19.9992Z" id="Vector" fill="none" fill-rule="evenodd" stroke="none" />
      </g>
    </g>
  </g>
</svg>