<?xml version="1.0" encoding="utf-8"?>
<svg width="20px" height="20px" viewBox="0 0 20 20" version="1.1" xmlns:xlink="http://www.w3.org/1999/xlink" xmlns="http://www.w3.org/2000/svg">
  <g id="vuesaxbrokenmenu-board" fill-opacity="1">
    <path d="M1115 96L1115 96L1115 116L1095 116L1095 96L1115 96Z" id="vuesaxbrokenmenu-board" fill="none" stroke="none" />
    <g id="vuesaxbrokenmenu-board">
      <g id="menu-board">
        <path d="M0.916463 15.8916C0.549796 17.1083 1.44145 18.3333 2.69978 18.3333L13.6498 18.3333C14.5165 18.3333 15.2581 17.75 15.4665 16.9084L18.2748 5.63334C18.3748 5.21667 18.3415 4.8083 18.1831 4.44997C17.9081 3.7833 17.2498 3.29997 16.4581 3.29997L6.20813 3.29997C5.39147 3.29997 4.65812 3.83337 4.42479 4.62504L2.23312 11.675" id="Vector" fill="none" stroke="#292D32" stroke-width="1.5" stroke-linecap="round" stroke-linejoin="round" />
        <path d="M13.3333 18.3333L17.3167 18.3333C18.3917 18.3333 19.2333 17.425 19.1583 16.35L18.3333 5" id="Vector" fill="none" stroke="#292D32" stroke-width="1.5" stroke-linecap="round" stroke-linejoin="round" />
        <path d="M8.06641 5.31667L8.93308 1.71672" id="Vector" fill="none" fill-rule="evenodd" stroke="#292D32" stroke-width="1.5" stroke-linecap="round" stroke-linejoin="round" />
        <path d="M13.6507 5.32501L14.4341 1.70837" id="Vector" fill="none" fill-rule="evenodd" stroke="#292D32" stroke-width="1.5" stroke-linecap="round" stroke-linejoin="round" />
        <path d="M6.41602 10L13.0827 10" id="Vector" fill="none" fill-rule="evenodd" stroke="#292D32" stroke-width="1.5" stroke-linecap="round" stroke-linejoin="round" />
        <path d="M12.25 13.3333L11.6667 13.3333" id="Vector" fill="none" fill-rule="evenodd" stroke="#292D32" stroke-width="1.5" stroke-linecap="round" stroke-linejoin="round" />
        <path d="M5.58268 13.3333L9.16601 13.3333" id="Vector" fill="none" fill-rule="evenodd" stroke="#292D32" stroke-width="1.5" stroke-linecap="round" stroke-linejoin="round" />
        <path d="M20 0L20 20L0 20L0 0L20 0Z" id="Vector" fill="none" fill-rule="evenodd" stroke="none" />
      </g>
    </g>
  </g>
</svg>