<?xml version="1.0" encoding="utf-8"?>
<svg width="24px" height="24px" viewBox="0 0 24 24" version="1.1" xmlns:xlink="http://www.w3.org/1999/xlink" xmlns="http://www.w3.org/2000/svg">
  <g id="vuesaxbrokencandle-2" fill-opacity="1">
    <path d="M1119 96L1119 96L1119 120L1095 120L1095 96L1119 96Z" id="vuesaxbrokencandle-2" fill="none" stroke="none" />
    <g id="vuesaxbrokencandle-2">
      <g id="candle-2">
        <path d="M22 17.5L15 17.5" id="Vector" fill="none" fill-rule="evenodd" stroke="#FFFFFF" stroke-width="1.5" stroke-linecap="round" stroke-linejoin="round" />
        <path d="M5 17.5L2 17.5" id="Vector" fill="none" fill-rule="evenodd" stroke="#FFFFFF" stroke-width="1.5" stroke-linecap="round" stroke-linejoin="round" />
        <path d="M22 6.5L19 6.5" id="Vector" fill="none" fill-rule="evenodd" stroke="#FFFFFF" stroke-width="1.5" stroke-linecap="round" stroke-linejoin="round" />
        <path d="M9 6.5L2 6.5" id="Vector" fill="none" fill-rule="evenodd" stroke="#FFFFFF" stroke-width="1.5" stroke-linecap="round" stroke-linejoin="round" />
        <path d="M13 14.5C14.1 14.5 15 15 15 16.5L15 18.5C15 20 14.1 20.5 13 20.5L7 20.5C5.9 20.5 5 20 5 18.5L5 16.5C5 15 5.9 14.5 7 14.5L13 14.5Z" id="Vector" fill="none" stroke="#FFFFFF" stroke-width="1.5" stroke-linecap="round" stroke-linejoin="round" />
        <path d="M17 3.5C18.1 3.5 19 4 19 5.5L19 7.5C19 9 18.1 9.5 17 9.5L11 9.5C9.9 9.5 9 9 9 7.5L9 5.5C9 4 9.9 3.5 11 3.5L13.03 3.5" id="Vector" fill="none" stroke="#FFFFFF" stroke-width="1.5" stroke-linecap="round" stroke-linejoin="round" />
        <path d="M24 0L24 24L0 24L0 0L24 0Z" id="Vector" fill="none" fill-rule="evenodd" stroke="none" />
      </g>
    </g>
  </g>
</svg>